<?xml version="1.0" encoding="UTF-8" standalone="no"?>
<!DOCTYPE svg PUBLIC "-//W3C//DTD SVG 1.1//EN" "http://www.w3.org/Graphics/SVG/1.1/DTD/svg11.dtd">
<svg width="638" height="173" viewBox="0 0 638 173" version="1.1" xmlns="http://www.w3.org/2000/svg" xmlns:xlink="http://www.w3.org/1999/xlink" xml:space="preserve" xmlns:serif="http://www.serif.com/" style="fill-rule:evenodd;clip-rule:evenodd;stroke-linejoin:round;stroke-miterlimit:2;" fill="#b99a6f">
    <g transform="matrix(1,0,0,1,-3015.11,-494.763)">
        <g transform="matrix(0.638597,0,0,1,2959.69,419.434)">
            <g transform="matrix(0.631579,0,0,0.34049,-162.895,-1.38915)">
                <path d="M541.927,343.162C541.927,345.731 541.307,346.833 540.998,348.301C537.588,358.948 533.869,369.961 530.46,380.608C521.472,408.876 513.104,437.878 507.526,467.248C505.976,475.691 504.426,484.135 504.426,492.946L504.426,495.149C504.736,500.288 507.216,503.959 511.245,505.428C512.484,505.795 513.414,506.162 514.654,506.162C517.443,506.162 519.923,504.694 521.782,502.124C523.642,499.187 525.501,496.25 527.051,492.946C537.588,473.489 547.816,453.664 558.663,434.574C582.217,393.09 609.181,354.175 638.934,318.932C652.26,303.146 666.207,288.094 681.393,274.143C690.381,266.067 699.989,257.99 710.216,252.116C714.555,249.546 718.894,247.711 723.543,246.977C724.163,246.977 724.473,246.61 724.783,246.61C726.022,246.61 726.642,247.344 726.642,248.812C726.642,249.179 726.332,249.546 726.332,250.281C725.403,253.585 724.473,256.522 723.543,259.826C717.964,275.612 710.526,290.297 703.708,305.348C691.311,331.781 678.604,358.213 668.067,386.114C660.009,407.774 652.57,429.801 647.302,452.93C639.554,488.173 633.355,523.784 631.186,560.128C630.876,563.8 630.876,567.838 630.876,571.509C630.876,576.649 631.186,581.788 631.805,587.295C633.355,597.942 638.624,604.917 646.682,607.12C647.612,607.12 648.231,607.487 648.851,607.487C651.021,607.487 652.57,606.385 652.88,604.917C652.88,604.55 653.19,604.183 653.19,603.816C653.19,601.98 651.641,599.777 649.161,598.676C646.062,597.207 644.822,594.27 644.512,590.599C644.202,588.397 644.202,586.194 643.892,583.624L643.892,580.32C643.892,566.369 645.442,552.786 647.302,539.203C652.26,504.326 659.699,470.552 671.786,438.245C684.493,404.47 699.369,372.164 713.935,339.858C721.374,322.97 728.812,306.083 735.01,288.461C738.109,280.017 740.899,271.941 742.758,262.763C743.378,259.826 743.688,256.889 743.688,254.319C743.688,248.445 742.448,242.938 739.659,237.432C735.63,229.722 729.432,225.317 721.993,225.317C720.754,225.317 719.204,225.317 717.964,225.684C709.906,227.519 702.778,231.925 695.96,236.697C677.984,249.546 662.178,265.7 646.992,282.587C637.384,293.234 628.086,304.614 619.098,315.995C606.702,332.148 594.614,348.668 583.147,365.923C563.312,396.027 546.266,427.966 529.53,460.272C528.601,462.108 527.671,463.943 525.811,465.779C526.431,463.209 526.741,461.741 527.361,459.905C533.559,435.308 541.617,411.446 549.056,387.216C553.085,374.734 557.114,362.252 559.903,349.035C560.523,345.364 561.143,341.693 561.143,337.655L561.143,335.452C560.523,326.274 554.324,320.033 547.816,320.033C545.336,320.033 542.547,321.135 540.068,322.97C538.828,323.704 537.588,324.806 536.349,325.907C530.46,331.781 524.881,338.389 519.923,345.364C501.017,371.063 484.281,398.229 468.165,426.13C451.429,455.5 436.243,485.603 420.747,515.707C419.197,519.011 417.338,521.948 415.478,525.619C415.168,524.885 414.858,524.151 414.858,523.784C414.858,522.682 415.168,521.948 415.478,521.214C419.817,498.085 425.396,475.324 431.594,452.563C438.722,425.396 447.71,398.964 457.318,372.898C468.475,343.162 481.182,314.526 495.129,286.258C496.368,284.423 497.298,282.587 499.778,282.22C501.637,281.853 502.877,280.384 503.187,278.182C503.807,272.675 505.666,267.902 507.836,263.13C508.765,260.927 509.075,259.092 509.075,257.256C509.075,254.686 508.455,252.483 507.216,249.914C505.976,247.711 504.426,246.242 502.877,244.407C499.778,241.103 496.368,239.634 492.959,239.634C489.55,239.634 485.831,241.47 482.732,245.875C480.562,248.445 478.703,251.382 476.843,254.319C468.785,266.801 462.277,280.384 456.078,293.968C437.793,334.351 424.156,376.569 413.619,420.624C405.251,455.5 398.432,490.743 395.643,527.088C395.333,530.025 395.333,532.962 395.333,536.266C395.333,539.937 395.333,543.608 395.953,547.279C396.573,550.95 397.812,553.52 400.602,555.356C402.461,556.457 404.631,557.192 406.8,557.192C409.9,557.192 412.999,555.723 415.478,552.419C417.028,550.216 418.577,547.646 420.127,545.077C427.565,531.493 434.693,517.543 441.512,503.592C465.376,456.601 491.1,411.078 520.852,369.227C527.361,360.416 534.179,351.605 541.927,343.162Z" style="fill-rule:nonzero;"/>
                <path d="M724.783,458.07L724.783,456.601C731.601,437.511 739.969,419.522 751.746,404.103C754.845,400.065 758.255,396.394 762.284,393.457C762.903,393.09 763.523,392.723 764.143,392.723C764.763,392.723 765.383,393.09 766.003,394.558C766.623,396.761 767.862,398.229 769.722,399.331C770.652,400.065 771.581,400.432 772.511,400.432C774.061,400.432 775.3,398.964 775.92,396.027C775.92,394.925 776.23,393.824 776.23,392.723C776.23,389.418 775.3,386.114 773.751,382.81C770.032,376.202 764.763,372.531 758.564,372.531C756.085,372.531 753.296,373.265 750.506,374.734C746.477,377.304 742.758,380.608 739.349,384.646C722.923,403.736 712.696,427.232 706.807,453.664C705.877,457.335 705.257,461.007 705.257,464.678C705.257,465.779 705.257,467.248 705.567,468.716C705.877,474.59 708.667,478.628 713.006,481.198C714.555,481.932 716.105,482.299 717.654,482.299C720.444,482.299 722.923,481.198 725.093,478.995C728.192,476.058 730.981,473.121 733.461,469.817C734.39,468.349 735.32,466.88 737.18,465.412C736.56,469.45 735.94,472.754 735.94,476.425C735.94,477.527 736.25,478.628 736.25,479.73C737.49,488.173 742.448,493.313 748.647,493.313C750.816,493.313 753.606,492.579 756.085,490.743C758.874,488.908 761.664,486.338 764.143,483.401L803.194,423.56C804.433,422.459 805.363,421.358 806.293,420.256C807.223,419.155 807.533,418.054 807.533,416.952C807.533,415.851 806.913,415.117 805.983,414.015C805.053,412.547 803.813,412.18 802.884,412.18C801.954,412.18 800.714,412.547 799.784,413.648L756.705,474.957C754.535,477.16 752.676,478.995 750.506,480.831C749.887,481.198 749.267,481.932 748.957,481.932C748.647,481.932 748.647,481.932 748.337,481.565C747.717,481.198 747.717,480.464 747.717,480.097L747.717,478.995C748.027,475.691 748.647,472.754 749.267,469.45C752.676,457.335 757.015,445.955 762.284,434.574C763.213,432.371 764.143,430.169 765.383,427.966C765.693,426.865 766.003,426.13 766.003,425.029C766.003,423.56 765.383,422.459 764.763,420.991C762.903,417.687 760.734,416.218 758.564,416.218C756.705,416.218 754.845,417.319 752.986,419.889C752.676,420.256 752.366,420.624 752.366,420.991C746.168,429.434 739.659,437.878 733.461,446.322C730.671,450.36 727.882,454.031 724.783,458.07Z" style="fill-rule:nonzero;"/>
                <path d="M860.22,392.723C860.53,393.457 860.53,394.558 860.53,395.292L860.53,397.862C860.84,401.533 861.149,405.572 862.699,408.876C865.488,415.117 869.208,418.788 875.096,418.788L876.026,418.788C881.605,418.421 887.183,417.319 892.762,417.319C895.861,417.687 898.65,417.687 901.75,417.687C903.609,417.319 904.849,416.585 904.849,414.75C904.849,414.015 904.539,413.281 904.229,412.547C903.609,410.344 902.06,408.876 900.2,408.142C898.65,407.407 897.101,407.04 895.241,406.673C891.522,405.939 887.803,405.939 884.084,405.939L876.336,405.939C872.617,405.939 872.307,405.572 872.307,401.166L872.307,388.317C871.997,383.177 870.447,379.139 867.348,375.835C865.798,374.367 863.939,373.265 862.079,373.265C860.53,373.265 859.29,374 857.74,375.101C855.571,376.936 853.711,378.772 851.542,380.975C845.653,386.849 840.075,393.824 834.496,400.432C833.876,401.166 833.256,402.268 832.017,402.635C832.636,399.698 833.566,397.128 834.496,394.925C835.116,392.723 835.426,390.887 835.426,388.684C835.426,384.279 833.566,380.241 829.537,377.304C827.678,375.835 826.128,375.101 824.268,375.101C822.099,375.101 819.93,376.569 818.07,379.139C815.901,382.076 814.041,385.38 812.181,388.684C806.293,399.698 801.334,411.078 796.685,423.193C792.346,434.574 788.317,445.955 785.838,458.437C784.908,461.374 784.908,464.678 784.908,467.615C785.218,472.754 788.627,477.16 792.966,478.628C793.896,478.995 794.516,478.995 795.446,478.995C797.925,478.995 800.094,477.16 801.954,474.59C804.743,470.184 807.223,465.779 809.702,461.374C823.029,436.777 838.835,414.383 857.12,394.925C857.74,394.191 858.67,392.723 860.22,392.723ZM829.847,406.306C827.988,408.876 825.818,411.813 823.959,414.383C825.508,411.078 825.508,406.306 829.847,406.306Z" style="fill-rule:nonzero;"/>
                <path d="M972.102,300.943C973.962,297.272 975.822,293.968 977.371,290.297C978.921,287.36 979.541,284.423 979.541,281.853C979.541,277.447 977.681,273.409 974.272,270.105C971.793,267.902 969.933,266.801 968.073,266.801C965.904,266.801 964.044,268.637 961.875,271.941C960.945,273.409 960.325,274.51 959.396,275.979C955.057,284.056 950.718,291.765 946.379,299.842C945.139,302.044 943.899,302.779 941.73,302.779C933.052,303.146 924.374,303.88 915.696,304.614C900.82,305.716 885.943,307.184 871.377,309.387C850.612,312.324 829.847,316.729 810.012,323.704C799.475,327.743 789.247,331.414 779.329,337.288C776.85,338.756 774.99,340.592 774.99,344.263C775.3,348.301 776.54,351.605 779.329,353.808C779.949,354.175 780.569,354.542 781.189,354.542C781.809,354.542 782.429,354.175 783.049,353.074C784.598,350.871 786.768,350.137 788.937,349.035C831.707,329.211 876.336,320.033 922.205,316.729C925.924,316.362 929.953,315.995 933.672,315.995L935.531,315.995C936.461,315.995 936.771,315.995 936.771,316.729C936.771,317.463 936.461,318.198 935.841,319.666C935.221,320.767 934.912,321.869 934.292,322.97C929.953,331.414 925.924,339.858 921.895,348.668C906.708,382.443 895.241,418.421 885.943,455.133C881.914,470.552 878.815,486.338 878.195,502.491L878.195,506.162C878.195,512.036 878.815,517.91 879.745,523.784C881.914,533.329 888.733,539.57 896.481,539.57C898.03,539.57 899.27,539.203 900.82,538.836C905.159,537.734 908.878,535.532 912.597,532.962C920.035,527.455 925.924,520.113 932.122,513.137C945.139,498.453 956.916,481.932 970.553,467.615C975.822,461.741 981.09,456.234 986.669,450.727C997.206,439.714 1008.05,429.434 1020.76,422.092C1021.07,421.725 1021.69,421.725 1022,421.358C1023.24,420.256 1023.55,419.522 1023.55,418.421C1023.55,417.319 1023.24,416.218 1022.31,415.484C1021.07,414.383 1019.83,413.648 1018.59,413.648C1017.66,413.648 1016.73,414.015 1015.49,414.75C1007.74,418.788 1000.62,424.295 994.107,430.169C977.061,445.588 960.945,462.108 946.069,480.097C938.631,489.275 930.882,498.085 923.134,506.896C917.866,513.137 912.287,518.644 906.089,523.417C903.299,525.252 900.51,526.721 897.721,527.822C897.101,527.822 896.791,528.189 896.171,528.189C895.241,528.189 894.621,527.088 894.621,525.619C894.311,524.151 894.311,522.315 894.311,520.847L894.311,517.543C894.311,510.2 895.241,502.858 896.481,495.883C899.27,480.097 903.609,465.045 908.258,450.36C921.895,405.572 938.941,362.252 960.635,321.869C964.664,314.159 964.664,314.159 972.722,313.792C980.78,313.792 989.148,314.526 997.206,314.526C1007.12,314.893 1016.73,316.362 1026.34,318.565C1028.51,319.299 1030.37,320.033 1032.54,320.4L1033.78,320.4C1035.95,320.4 1037.19,318.932 1037.19,316.729C1037.19,315.995 1037.19,315.261 1036.88,314.526C1036.26,311.222 1034.09,309.754 1031.61,309.02C1020.76,305.348 1009.6,303.513 998.446,302.779C991.938,302.411 985.739,302.044 979.231,302.044L974.582,302.044C973.652,302.044 973.032,302.044 972.102,300.943Z" style="fill-rule:nonzero;"/>
                <path d="M1020.45,458.07L1020.45,456.601C1027.27,437.511 1035.64,419.522 1047.41,404.103C1050.51,400.065 1053.92,396.394 1057.95,393.457C1058.57,393.09 1059.19,392.723 1059.81,392.723C1060.43,392.723 1061.05,393.09 1061.67,394.558C1062.29,396.761 1063.53,398.229 1065.39,399.331C1066.32,400.065 1067.25,400.432 1068.18,400.432C1069.73,400.432 1070.97,398.964 1071.59,396.027C1071.59,394.925 1071.9,393.824 1071.9,392.723C1071.9,389.418 1070.97,386.114 1069.42,382.81C1065.7,376.202 1060.43,372.531 1054.23,372.531C1051.75,372.531 1048.96,373.265 1046.17,374.734C1042.14,377.304 1038.43,380.608 1035.02,384.646C1018.59,403.736 1008.36,427.232 1002.48,453.664C1001.55,457.335 1000.93,461.007 1000.93,464.678C1000.93,465.779 1000.93,467.248 1001.24,468.716C1001.55,474.59 1004.34,478.628 1008.67,481.198C1010.22,481.932 1011.77,482.299 1013.32,482.299C1016.11,482.299 1018.59,481.198 1020.76,478.995C1023.86,476.058 1026.65,473.121 1029.13,469.817C1030.06,468.349 1030.99,466.88 1032.85,465.412C1032.23,469.45 1031.61,472.754 1031.61,476.425C1031.61,477.527 1031.92,478.628 1031.92,479.73C1033.16,488.173 1038.12,493.313 1044.32,493.313C1046.48,493.313 1049.27,492.579 1051.75,490.743C1054.54,488.908 1057.33,486.338 1059.81,483.401L1098.86,423.56C1100.1,422.459 1101.03,421.358 1101.96,420.256C1102.89,419.155 1103.2,418.054 1103.2,416.952C1103.2,415.851 1102.58,415.117 1101.65,414.015C1100.72,412.547 1099.48,412.18 1098.55,412.18C1097.62,412.18 1096.38,412.547 1095.45,413.648L1052.37,474.957C1050.2,477.16 1048.34,478.995 1046.17,480.831C1045.56,481.198 1044.93,481.932 1044.62,481.932C1044.32,481.932 1044.32,481.932 1044.01,481.565C1043.38,481.198 1043.38,480.464 1043.38,480.097L1043.38,478.995C1043.69,475.691 1044.32,472.754 1044.93,469.45C1048.34,457.335 1052.68,445.955 1057.95,434.574C1058.88,432.371 1059.81,430.169 1061.05,427.966C1061.36,426.865 1061.67,426.13 1061.67,425.029C1061.67,423.56 1061.05,422.459 1060.43,420.991C1058.57,417.687 1056.4,416.218 1054.23,416.218C1052.37,416.218 1050.51,417.319 1048.65,419.889C1048.34,420.256 1048.03,420.624 1048.03,420.991C1041.84,429.434 1035.33,437.878 1029.13,446.322C1026.34,450.36 1023.55,454.031 1020.45,458.07Z" style="fill-rule:nonzero;"/>
                <path d="M1273.66,255.787C1285.44,253.952 1296.9,253.585 1308.06,252.851C1324.49,251.749 1341.22,251.382 1357.96,251.382L1369.43,251.382C1382.75,251.382 1396.08,251.749 1409.72,253.585C1416.53,254.686 1423.66,254.686 1428.62,261.661C1429.24,262.028 1429.55,262.396 1430.17,262.763L1430.79,262.763C1432.03,262.763 1432.96,262.028 1433.58,260.56C1433.89,259.826 1433.89,259.459 1433.89,258.724C1433.89,257.99 1433.89,257.256 1433.58,256.522C1432.34,252.483 1429.86,249.179 1426.76,246.61C1421.8,243.305 1416.22,241.837 1410.34,240.736C1397.01,238.166 1383.37,237.432 1370.05,237.064C1361.37,236.697 1352.38,236.697 1343.7,236.697C1326.04,236.697 1308.37,237.064 1290.7,238.166C1285.13,238.166 1279.24,238.533 1273.66,238.9C1258.16,240.368 1242.98,241.837 1227.48,244.407C1205.48,247.711 1183.47,251.749 1161.78,257.256C1158.37,257.99 1154.96,258.724 1151.86,260.193C1149.69,261.661 1148.45,263.13 1148.45,264.965C1148.45,266.067 1148.76,266.801 1149.07,267.902C1150.62,272.675 1153.72,274.878 1157.75,275.612C1167.66,277.08 1177.58,277.447 1187.19,279.283C1198.04,281.119 1208.58,284.056 1218.49,289.195C1225,292.499 1231.2,296.538 1236.16,302.411C1237.71,304.247 1238.64,305.348 1238.64,306.45C1238.64,307.551 1238.02,308.652 1237.09,310.488C1229.65,326.274 1222.83,342.794 1216.32,359.315C1213.53,366.29 1210.43,373.632 1207.95,380.975C1207.03,383.177 1205.79,384.646 1203.31,384.646C1199.9,385.013 1196.49,385.747 1193.08,386.482C1180.37,387.95 1167.98,390.153 1155.89,394.191C1147.52,396.761 1139.46,400.065 1132.02,405.205C1129.85,406.673 1128.61,408.142 1128.61,410.344C1128.61,411.813 1129.23,413.281 1130.16,414.75C1131.71,417.687 1133.88,419.155 1136.67,419.155L1138.22,419.155C1140.39,418.421 1142.25,418.054 1144.11,417.319C1160.54,411.078 1177.27,405.939 1194.63,402.635C1195.25,402.268 1196.49,401.901 1197.42,401.901C1198.04,401.901 1198.66,402.268 1198.97,403.002C1199.28,403.369 1199.28,403.736 1199.28,404.103C1199.28,405.205 1198.35,406.673 1198.04,407.774C1188.43,435.308 1178.82,463.209 1171.38,491.844C1165.81,512.77 1161.16,533.329 1159.3,554.989C1158.99,558.293 1158.68,561.597 1158.68,564.901C1158.68,569.306 1159.3,573.712 1160.23,578.117C1162.09,586.194 1167.66,590.599 1173.55,590.599C1176.65,590.599 1180.06,589.131 1183.16,585.827C1186.57,581.788 1189.36,577.383 1192.15,572.978C1198.66,561.23 1204.55,549.482 1209.81,537C1229.03,492.946 1245.15,447.423 1255.99,399.331C1256.92,395.659 1256.92,395.292 1260.33,395.292C1266.22,395.292 1272.42,395.292 1278.31,395.659C1283.89,396.027 1289.46,396.761 1294.42,400.065C1295.35,400.432 1295.97,400.799 1296.9,400.799C1297.52,400.799 1298.14,400.799 1298.76,400.065C1299.69,398.964 1300,397.862 1300,396.761C1300,396.027 1299.69,395.292 1299.69,394.558C1299.07,391.254 1297.21,389.051 1295.04,387.583C1291.02,384.646 1286.37,383.545 1282.03,382.443C1275.83,381.342 1269.63,380.975 1263.43,380.608C1260.64,380.608 1259.71,380.241 1259.71,378.038C1259.71,377.304 1260.02,376.569 1260.02,375.468C1260.02,375.101 1260.33,374.734 1260.33,374C1260.95,367.391 1261.57,360.416 1261.57,353.441C1261.57,347.2 1260.95,340.959 1260.02,334.718L1260.02,333.617C1260.02,331.781 1260.64,329.945 1261.26,328.477C1265.91,319.299 1270.56,309.754 1275.21,300.576C1278.62,293.601 1282.65,286.625 1285.75,279.283C1286.68,276.713 1287.3,274.51 1287.3,272.675C1287.3,269.371 1286.06,266.434 1283.58,263.13C1281.1,259.459 1278,257.256 1273.66,255.787ZM1176.34,570.041C1177.27,559.394 1179.44,549.115 1181.92,538.836C1189.67,508.732 1199.59,479.362 1210.12,450.36C1216.01,434.574 1222.21,418.421 1228.41,402.635C1229.96,398.596 1231.82,396.761 1235.54,396.761C1237.4,396.761 1239.26,396.394 1241.12,396.394C1242.36,396.394 1242.98,396.761 1242.98,397.862C1242.98,398.229 1242.98,398.596 1242.67,398.964C1242.05,402.268 1241.43,405.572 1240.5,408.876C1227.17,458.804 1210.12,506.162 1187.81,551.318C1185.02,557.192 1181.92,562.698 1178.51,568.205C1177.89,568.939 1177.58,570.041 1176.34,570.041ZM1266.22,256.889C1258.78,266.434 1253.51,277.447 1247.93,288.461C1247.32,289.562 1246.69,291.031 1246.08,292.132C1244.84,294.335 1244.22,295.436 1243.6,295.436C1242.98,295.436 1242.36,294.702 1240.81,293.234C1239.57,292.132 1238.64,291.031 1237.4,289.929C1225.93,278.916 1212.6,272.675 1198.35,268.269C1197.42,267.902 1196.18,267.535 1195.25,267.535C1194.94,267.168 1194.94,267.168 1194.32,266.801C1218.49,262.763 1242.36,259.092 1266.22,256.889ZM1237.71,380.975C1241.12,371.797 1245.15,363.353 1249.49,354.175C1249.8,354.909 1249.8,355.644 1249.8,356.378C1249.8,358.581 1249.17,360.416 1249.17,362.252C1248.56,367.024 1247.93,371.797 1247.32,376.936C1247.01,379.506 1246.08,380.975 1243.6,380.975C1242.36,380.975 1241.12,381.342 1239.88,381.342C1239.26,381.342 1238.33,381.342 1237.71,380.975Z" style="fill-rule:nonzero;"/>
                <path d="M1318.29,458.07L1318.29,456.601C1325.11,437.511 1333.47,419.522 1345.25,404.103C1348.35,400.065 1351.76,396.394 1355.79,393.457C1356.41,393.09 1357.03,392.723 1357.65,392.723C1358.27,392.723 1358.89,393.09 1359.51,394.558C1360.13,396.761 1361.37,398.229 1363.23,399.331C1364.16,400.065 1365.09,400.432 1366.02,400.432C1367.57,400.432 1368.81,398.964 1369.43,396.027C1369.43,394.925 1369.74,393.824 1369.74,392.723C1369.74,389.418 1368.81,386.114 1367.26,382.81C1363.54,376.202 1358.27,372.531 1352.07,372.531C1349.59,372.531 1346.8,373.265 1344.01,374.734C1339.98,377.304 1336.26,380.608 1332.85,384.646C1316.43,403.736 1306.2,427.232 1300.31,453.664C1299.38,457.335 1298.76,461.007 1298.76,464.678C1298.76,465.779 1298.76,467.248 1299.07,468.716C1299.38,474.59 1302.17,478.628 1306.51,481.198C1308.06,481.932 1309.61,482.299 1311.16,482.299C1313.95,482.299 1316.43,481.198 1318.6,478.995C1321.7,476.058 1324.49,473.121 1326.97,469.817C1327.9,468.349 1328.83,466.88 1330.68,465.412C1330.07,469.45 1329.44,472.754 1329.44,476.425C1329.44,477.527 1329.76,478.628 1329.76,479.73C1331,488.173 1335.95,493.313 1342.15,493.313C1344.32,493.313 1347.11,492.579 1349.59,490.743C1352.38,488.908 1355.17,486.338 1357.65,483.401L1396.7,423.56C1397.94,422.459 1398.87,421.358 1399.8,420.256C1400.73,419.155 1401.04,418.054 1401.04,416.952C1401.04,415.851 1400.42,415.117 1399.49,414.015C1398.56,412.547 1397.32,412.18 1396.39,412.18C1395.46,412.18 1394.22,412.547 1393.29,413.648L1350.21,474.957C1348.04,477.16 1346.18,478.995 1344.01,480.831C1343.39,481.198 1342.77,481.932 1342.46,481.932C1342.15,481.932 1342.15,481.932 1341.84,481.565C1341.22,481.198 1341.22,480.464 1341.22,480.097L1341.22,478.995C1341.53,475.691 1342.15,472.754 1342.77,469.45C1346.18,457.335 1350.52,445.955 1355.79,434.574C1356.72,432.371 1357.65,430.169 1358.89,427.966C1359.2,426.865 1359.51,426.13 1359.51,425.029C1359.51,423.56 1358.89,422.459 1358.27,420.991C1356.41,417.687 1354.24,416.218 1352.07,416.218C1350.21,416.218 1348.35,417.319 1346.49,419.889C1346.18,420.256 1345.87,420.624 1345.87,420.991C1339.67,429.434 1333.16,437.878 1326.97,446.322C1324.18,450.36 1321.39,454.031 1318.29,458.07Z" style="fill-rule:nonzero;"/>
                <path d="M1464.57,395.292L1464.57,396.394C1462.09,404.47 1459.61,412.18 1457.13,420.256C1456.51,422.092 1455.28,423.193 1453.73,423.928C1441.95,429.434 1431.41,437.144 1421.18,445.588C1402.59,460.639 1385.85,478.261 1372.84,499.921C1366.02,511.302 1360.13,523.05 1356.72,535.899C1355.17,541.773 1353.93,547.646 1353.93,553.52C1353.93,556.457 1354.24,559.761 1354.86,562.698C1356.72,572.61 1362.92,579.219 1371.29,580.32L1374.07,580.32C1379.34,580.32 1384.3,579.586 1388.95,577.016C1400.42,571.509 1409.41,562.331 1416.84,551.318C1431.41,530.025 1443.19,506.162 1453.11,481.198C1459.3,465.412 1464.57,449.259 1469.53,433.106C1470.46,430.169 1472.01,427.966 1474.49,427.232C1485.65,423.928 1496.18,419.155 1507.34,419.155C1509.51,419.155 1511.37,419.155 1513.54,419.522C1515.09,419.522 1516.33,418.421 1516.33,416.952C1516.33,416.218 1516.02,415.851 1515.71,415.117C1514.78,412.547 1512.61,411.078 1510.44,410.344C1508.58,409.977 1506.72,409.61 1504.86,409.61L1503,409.61C1494.94,410.711 1486.89,412.547 1479.14,414.383C1478.52,414.75 1477.9,414.75 1477.28,414.75C1476.35,414.75 1476.04,414.383 1476.04,413.281C1476.04,412.914 1476.04,411.813 1476.35,411.078L1480.07,396.761C1481,391.988 1482.24,386.849 1482.24,381.342C1481.93,376.936 1480.69,372.531 1477.9,369.594C1476.04,367.759 1474.49,366.657 1472.63,366.657C1471.39,366.657 1470.15,367.391 1468.6,368.126C1466.74,369.594 1465.19,371.43 1463.33,373.265C1456.82,380.975 1450.63,389.051 1444.43,397.495C1442.88,399.698 1441.33,401.901 1439.47,403.736C1437.92,402.635 1438.23,401.166 1437.92,400.065C1435.75,391.254 1428.62,385.38 1421.18,385.38C1419.63,385.38 1418.08,385.747 1416.53,386.114C1412.82,387.583 1409.41,389.786 1406.62,393.09C1400.11,400.432 1395.46,409.243 1392.67,419.522C1391.43,422.826 1390.81,426.497 1390.5,430.169L1390.5,432.004C1390.5,441.549 1397.01,449.259 1405.07,449.259C1406.31,449.259 1407.55,448.892 1408.79,448.525C1410.34,447.79 1411.88,447.423 1413.12,446.689C1421.18,442.651 1428,436.777 1434.51,430.169C1443.5,420.624 1452.17,409.977 1460.54,399.331C1461.78,397.862 1462.71,396.394 1464.57,395.292ZM1449.7,440.448C1449.39,443.385 1448.15,445.588 1447.22,447.79C1436.37,475.691 1424.59,502.858 1411.58,529.291C1405.69,540.671 1398.56,551.318 1389.26,559.394C1384.92,563.433 1380.27,566.737 1374.69,568.572C1373.45,568.939 1372.21,569.306 1371.29,569.306C1368.81,569.306 1367.57,567.471 1366.33,563.065C1365.71,560.496 1365.4,557.559 1365.4,554.989C1365.4,550.95 1366.02,546.912 1366.95,542.874C1369.74,529.658 1375.31,518.277 1382.13,507.631C1394.84,487.072 1410.34,470.184 1428,455.5C1433.58,451.094 1439.16,447.056 1444.74,443.018C1446.29,442.284 1447.53,440.815 1449.7,440.448ZM1405.38,433.84C1405.38,433.473 1405.07,433.106 1405.07,432.738C1405.07,431.637 1405.69,430.536 1406,429.801C1409.41,421.725 1413.43,414.75 1418.7,408.509C1419.63,407.407 1420.87,406.673 1422.11,405.572C1423.66,404.47 1424.59,403.736 1424.9,403.736C1425.83,403.736 1426.14,405.205 1426.45,407.774C1426.76,409.977 1427.38,411.813 1428.62,413.648C1428.93,414.015 1428.93,414.75 1428.93,415.117C1428.93,415.851 1428.93,416.218 1428.31,416.952C1421.8,424.295 1414.67,430.536 1406,434.207C1406,434.207 1405.69,433.84 1405.38,433.84Z" style="fill-rule:nonzero;"/>
                <path d="M1553.83,432.738L1554.45,432.738C1554.14,433.84 1554.14,434.207 1553.83,434.941C1551.66,440.815 1549.8,446.689 1548.56,452.93C1547.94,456.601 1547.32,460.272 1547.32,464.311L1547.32,466.88C1548.25,474.59 1552.9,479.362 1558.48,479.362C1560.34,479.362 1562.51,478.628 1564.37,477.527C1566.54,476.425 1568.4,474.957 1570.26,473.121C1570.26,473.121 1574.9,468.349 1616.43,427.966C1618.61,425.763 1620.77,423.56 1622.63,421.358C1623.56,419.889 1624.18,418.788 1624.18,417.319C1624.18,415.851 1623.25,414.383 1621.7,413.281C1620.77,412.547 1619.85,412.18 1619.23,412.18C1617.99,412.18 1617.06,412.914 1615.51,414.383L1568.09,459.538C1565.92,461.741 1563.75,463.943 1561.27,466.146C1560.96,466.513 1560.34,466.88 1560.03,466.88C1559.72,466.88 1559.72,466.88 1559.41,466.513C1558.79,466.146 1558.79,465.412 1558.79,464.678C1559.1,461.007 1560.03,458.07 1560.96,454.766C1566.85,437.878 1574.9,422.459 1584.51,408.142C1587.61,403.736 1591.02,399.331 1594.12,394.925C1595.05,393.457 1595.67,391.621 1595.67,389.786C1595.67,387.583 1594.74,385.38 1592.88,383.177C1591.64,381.709 1590.09,380.608 1588.85,380.608C1587.3,380.608 1585.75,381.709 1584.2,383.545C1581.72,386.114 1579.55,389.051 1577.08,391.254C1558.17,410.344 1538.33,428.333 1518.81,446.689C1517.88,447.423 1517.57,448.157 1516.64,448.157L1516.02,448.157L1516.02,447.79C1521.91,432.004 1529.04,416.952 1537.1,403.002C1538.02,401.533 1538.95,400.799 1540.19,400.799L1541.12,400.799C1541.74,400.799 1542.05,401.166 1542.67,401.166C1544.22,401.166 1545.15,400.065 1545.77,398.229C1546.39,396.027 1546.7,393.824 1546.7,391.621C1546.7,386.849 1545.15,382.443 1542.05,378.772C1540.19,376.569 1538.02,375.468 1535.86,375.468C1534,375.468 1531.83,376.569 1529.97,378.405C1527.18,380.975 1525.32,383.545 1523.15,386.849C1513.23,401.533 1506.1,418.054 1500.83,436.042C1498.97,442.651 1496.81,449.626 1496.81,456.601C1496.81,465.045 1502.07,470.919 1507.96,470.919C1510.13,470.919 1511.99,470.184 1513.85,469.083C1516.64,467.248 1518.81,465.045 1521.29,462.842C1531.21,453.664 1540.81,444.119 1550.73,434.941C1551.66,433.84 1552.28,432.738 1553.83,432.738ZM1557.86,344.997C1560.34,344.997 1562.2,343.896 1564.06,342.06C1568.71,336.553 1573.67,331.414 1578.62,326.274C1580.17,324.806 1581.72,322.97 1583.27,321.502C1584.2,320.4 1584.51,318.932 1584.51,317.83C1584.51,317.096 1584.51,316.362 1584.2,315.628C1583.27,312.691 1580.48,311.222 1578.01,311.222C1576.77,311.222 1575.53,311.589 1574.6,312.324C1566.54,318.198 1559.1,325.54 1550.73,330.68C1549.18,331.781 1548.25,333.249 1548.25,334.718C1548.25,335.819 1548.56,336.921 1549.18,338.389C1551.04,342.427 1554.14,344.63 1557.86,344.997Z" style="fill-rule:nonzero;"/>
                <path d="M1635.03,425.029C1634.72,424.662 1634.41,424.295 1634.1,424.295C1635.34,420.624 1636.58,417.319 1638.13,414.015C1640.92,407.774 1642.16,400.432 1647.12,395.659C1647.43,395.659 1647.43,395.292 1647.74,394.925C1648.36,393.457 1648.67,391.988 1648.67,390.153C1648.67,383.545 1644.33,377.304 1638.44,376.569C1636.27,376.569 1634.41,377.304 1632.86,379.139C1631,381.342 1629.76,383.912 1628.52,386.482C1618.91,406.306 1611.48,427.599 1606.52,449.626C1605.59,452.93 1605.28,456.234 1604.97,459.538L1604.97,461.007C1604.97,465.045 1607.14,469.083 1610.86,470.552C1612.1,471.286 1613.34,471.653 1614.27,471.653C1616.43,471.653 1618.3,470.184 1620.46,467.615C1622.63,464.311 1624.8,460.639 1626.97,457.335C1639.99,437.144 1654.87,419.155 1671.29,403.002C1672.22,401.901 1673.15,400.432 1675.01,400.065C1674.08,403.369 1672.84,406.306 1671.91,408.876C1668.5,417.687 1665.71,426.865 1663.85,436.41C1662.92,440.081 1662.3,443.752 1662.3,447.423L1662.3,449.259C1662.92,455.5 1666.95,459.538 1671.6,459.538C1673.15,459.538 1674.39,459.171 1675.94,458.437C1679.35,456.601 1682.14,453.664 1685.24,451.094C1695.16,441.549 1705.07,432.004 1715.61,423.56C1716.23,423.193 1716.85,422.459 1717.47,422.092C1718.4,420.991 1719.02,419.889 1719.02,418.788C1719.02,418.054 1718.4,416.952 1717.78,416.218C1716.54,414.75 1715.3,414.015 1713.75,414.015C1713.13,414.015 1712.2,414.383 1711.58,414.75C1710.65,415.117 1709.72,415.851 1709.1,416.585C1698.26,424.295 1688.34,433.473 1678.42,442.651C1676.87,443.752 1675.63,444.853 1673.77,446.689C1674.08,443.018 1675.32,440.448 1675.94,438.245C1680.59,423.56 1686.48,409.977 1691.75,396.027C1692.68,393.457 1693.61,391.254 1693.92,388.684L1693.92,386.849C1693.92,382.443 1692.06,378.038 1688.96,375.468C1687.41,374.367 1686.17,374 1684.93,374C1682.76,374 1680.9,375.101 1678.73,376.936L1675.94,379.139C1669.12,385.747 1662.61,391.988 1656.42,398.964C1649.29,407.407 1642.16,416.218 1635.03,425.029Z" style="fill-rule:nonzero;"/>
                <path d="M1734.83,467.248L1734.83,467.982C1734.83,468.716 1734.52,469.083 1734.52,469.817C1730.8,480.831 1727.39,492.212 1723.98,503.225C1719.64,517.543 1715.61,532.227 1713.13,546.912C1712.82,548.748 1712.51,550.583 1712.51,552.419C1712.51,553.52 1712.82,554.989 1712.82,556.09C1713.13,560.863 1716.54,564.167 1719.95,564.167C1722.43,564.167 1723.98,563.065 1723.98,560.128L1723.98,559.394C1723.67,558.293 1723.67,557.192 1723.67,556.09C1723.67,554.622 1723.98,552.786 1724.29,551.318C1725.84,542.507 1728.01,533.696 1730.49,525.252C1738.86,496.617 1748.77,468.716 1759,440.815C1760.24,437.511 1761.79,434.574 1763.96,432.004C1767.37,427.599 1771.09,422.826 1774.5,418.054C1788.75,398.229 1802.39,378.038 1816.03,357.846C1827.49,340.225 1838.34,322.236 1847.95,302.779C1851.36,295.803 1854.77,288.461 1856.32,280.384C1856.63,278.549 1856.94,276.713 1856.94,274.878C1856.94,271.206 1856.01,267.535 1853.84,264.231C1851.67,260.927 1849.19,259.459 1846.09,259.459C1844.85,259.459 1843.3,259.826 1841.75,260.56C1838.96,262.028 1836.17,264.231 1833.69,266.801C1824.39,275.979 1816.34,287.36 1808.9,299.107C1789.68,328.11 1774.19,360.049 1761.17,393.824C1760.86,394.925 1760.24,396.027 1759.93,397.128C1759.62,397.862 1759.31,398.229 1758.69,398.229C1758.38,398.229 1758.07,397.862 1757.76,397.495C1755.59,395.292 1753.42,393.09 1750.94,391.621C1746.91,389.051 1743.19,387.583 1739.48,387.583C1734.83,387.583 1730.49,389.418 1726.46,393.09C1722.12,396.761 1718.71,401.533 1715.92,406.673C1707.24,421.725 1701.05,438.245 1696.4,455.5C1695.47,459.905 1694.85,464.311 1694.85,468.716L1694.85,471.653C1695.16,476.058 1696.71,479.73 1699.81,482.299C1702.28,484.502 1704.76,485.603 1707.55,485.603C1709.72,485.603 1711.58,484.869 1713.75,483.768C1719.95,480.464 1725.53,474.957 1730.8,469.817C1732.04,469.083 1732.97,467.615 1734.83,467.248ZM1710.03,469.817C1710.34,465.412 1711.89,461.741 1713.13,458.07C1717.78,445.22 1723.36,433.106 1730.8,422.092C1733.9,417.319 1737.62,412.547 1742.27,409.61C1743.81,408.509 1745.67,407.774 1747.22,407.774C1748.77,407.774 1750.01,408.509 1751.25,409.61C1752.8,410.711 1753.42,411.813 1753.42,413.281C1753.42,414.015 1753.42,414.75 1753.11,415.851C1750.63,422.459 1748.46,428.7 1745.98,435.308C1745.67,436.41 1744.74,437.511 1744.12,438.612C1734.52,448.892 1725.22,459.538 1714.06,467.615C1713.13,468.349 1712.51,469.083 1711.58,469.45C1711.27,469.45 1710.96,469.817 1710.03,469.817ZM1781.01,388.317C1797.74,351.238 1816.34,315.995 1840.51,285.157C1825.32,323.337 1803.32,356.011 1781.01,388.317Z" style="fill-rule:nonzero;"/>
                <path d="M1798.36,444.853C1798.36,448.157 1798.67,452.196 1799.6,455.867C1802.08,465.412 1809.52,473.489 1818.51,473.489C1821.61,473.489 1824.39,472.754 1827.49,470.919C1829.35,469.45 1831.21,468.349 1833.07,466.88C1836.17,463.943 1839.58,461.007 1842.37,458.07C1851.05,449.626 1859.11,440.815 1868.09,433.473C1873.05,429.067 1881.42,425.029 1887.31,422.092C1889.17,420.991 1890.1,419.889 1890.1,418.421C1890.1,417.319 1889.48,415.851 1887.93,414.75C1886.69,413.648 1885.45,413.281 1884.21,413.281L1882.97,413.281C1882.97,413.281 1871.5,417.319 1859.42,427.232C1848.57,436.41 1838.34,445.955 1827.8,455.133C1825.32,457.335 1822.85,459.171 1820.06,460.639C1818.2,461.741 1816.96,462.108 1815.72,462.108C1813.86,462.108 1812.93,460.272 1812.93,456.234L1812.93,454.766C1812.93,447.79 1814.48,440.815 1816.65,434.207C1817.27,432.371 1818.2,431.637 1819.44,431.637L1820.37,431.637C1821.91,432.004 1823.47,432.371 1825.01,432.371C1827.18,432.371 1829.66,431.637 1831.83,430.903C1839.89,427.966 1846.71,422.826 1852.29,415.484C1856.01,410.711 1858.49,405.205 1859.73,398.964C1860.04,397.495 1860.04,395.659 1860.04,394.191C1860.04,382.81 1851.98,373.265 1842.68,373.265C1840.82,373.265 1838.96,373.632 1837.1,374.367C1831.52,376.569 1826.87,380.608 1822.54,385.38C1815.1,393.457 1809.52,403.736 1804.87,414.383C1800.84,423.928 1798.36,433.473 1798.36,444.853ZM1846.71,391.254L1847.64,391.254C1847.33,397.862 1845.16,403.369 1841.75,407.774C1837.72,413.648 1832.76,417.687 1826.87,420.256C1826.25,420.624 1825.63,420.991 1825.01,420.991C1824.7,420.991 1824.39,421.358 1824.09,421.358C1823.78,421.358 1823.47,420.991 1823.15,420.624C1822.85,420.256 1822.85,419.889 1822.85,419.522C1822.85,419.155 1822.85,418.788 1823.15,418.421C1828.42,408.142 1834.31,398.964 1843.3,392.723C1844.23,391.988 1845.47,391.254 1846.71,391.254Z" style="fill-rule:nonzero;"/>
                <path d="M1890.41,423.193C1889.79,425.029 1888.55,425.763 1887.62,427.232C1885.14,430.169 1882.35,432.738 1880.18,436.042C1878.63,438.612 1877.7,441.182 1877.7,443.752C1877.7,445.955 1878.32,448.157 1879.56,450.36C1880.18,451.461 1880.49,452.563 1880.49,452.93C1880.49,454.031 1879.87,454.766 1878.32,456.234C1863.44,469.817 1849.81,485.236 1837.41,501.757C1832.76,508.365 1827.8,514.606 1823.78,521.948C1820.37,528.556 1816.96,535.164 1816.03,542.874C1815.72,544.342 1815.72,545.811 1815.72,547.279C1815.72,555.356 1819.44,562.331 1825.94,565.635C1828.73,567.471 1832.14,568.205 1835.55,568.572C1845.47,568.572 1854.15,564.901 1862.52,559.394C1878.94,548.748 1892.58,534.43 1904.36,517.543C1909.93,509.099 1914.89,500.288 1917.99,490.009C1919.23,485.971 1919.85,481.565 1919.85,477.894C1919.85,467.615 1915.51,458.437 1907.76,451.829C1907.45,451.461 1906.84,451.094 1906.53,450.727C1905.9,449.993 1905.6,449.626 1905.6,449.259C1905.6,448.525 1905.9,448.157 1906.53,447.79C1907.14,447.056 1907.76,446.689 1908.38,446.322C1925.43,434.207 1943.41,425.763 1962.93,420.256C1965.1,419.522 1967.58,419.155 1970.06,419.155C1971.3,419.155 1972.54,419.155 1974.09,419.522L1975.02,419.522C1976.26,419.522 1977.19,418.421 1977.19,416.218L1977.19,415.484C1976.57,411.446 1973.16,408.509 1969.13,408.509L1968.2,408.509C1966.03,408.509 1963.86,408.876 1961.69,409.61C1947.75,412.914 1934.42,418.054 1921.4,424.662C1917.68,426.865 1913.96,429.067 1909.62,431.27C1910.55,429.801 1911.48,429.067 1912.1,428.333C1918.3,422.092 1924.19,415.851 1929.15,408.509C1931.63,404.837 1934.11,400.799 1935.35,396.394C1935.97,394.191 1936.28,391.988 1936.28,389.786C1936.28,379.506 1930.08,369.594 1920.47,369.594L1919.54,369.594C1916.75,369.961 1914.27,370.328 1911.48,371.063C1902.5,374.734 1894.75,380.608 1887.93,388.684C1885.76,391.254 1883.9,394.191 1882.66,397.495C1881.11,400.432 1880.49,403.736 1880.49,406.673C1880.49,412.18 1882.97,416.952 1887.31,420.624C1888.55,421.358 1889.79,421.725 1890.41,423.193ZM1830.9,554.622C1826.87,554.622 1826.25,553.887 1825.94,549.482C1825.94,545.077 1827.18,541.038 1828.73,537.367C1832.14,528.189 1837.1,520.113 1842.68,512.403C1856.32,492.579 1872.12,476.058 1889.48,461.007C1890.72,459.538 1892.27,458.804 1894.13,458.804C1895.06,458.804 1895.99,459.171 1896.92,459.538C1899.4,461.007 1902.19,461.741 1904.36,463.576C1906.53,465.412 1907.76,467.615 1907.76,470.184C1907.76,470.919 1907.76,472.02 1907.45,472.754C1906.22,478.995 1903.74,484.502 1900.95,490.009C1892.27,505.061 1881.73,517.91 1870.26,530.025C1862.52,538.101 1854.77,545.077 1845.47,549.849C1840.51,552.419 1835.55,554.255 1830.9,554.622ZM1920.16,389.786C1918.3,394.558 1902.19,413.281 1895.37,418.421C1894.13,418.054 1894.44,416.585 1894.13,415.484C1893.51,414.383 1893.2,413.648 1893.2,412.547C1893.2,411.078 1894.13,409.243 1895.06,407.774C1899.09,402.635 1903.42,398.229 1908.69,394.558C1911.48,392.723 1914.27,390.887 1917.37,389.786C1917.99,389.418 1918.3,389.418 1918.92,389.418C1919.23,389.418 1919.85,389.418 1920.16,389.786Z" style="fill-rule:nonzero;"/>
            </g>
        </g>
        <g transform="matrix(0.638597,0,0,1,2959.69,419.434)">
            <g transform="matrix(1,0,0,0.205812,150.205,156.141)">
                <path d="M148.525,376.898C148.525,387.97 148.069,397.641 147.156,405.911C146.242,414.182 144.909,421.036 143.157,426.473C141.405,431.91 139.255,435.979 136.706,438.681C134.157,441.383 131.12,442.734 127.594,442.734L118.865,442.734C118.376,442.734 117.914,442.223 117.479,441.202C117.043,440.18 116.826,438.385 116.826,435.814L116.826,321.739C116.826,319.168 117.043,317.373 117.479,316.351C117.914,315.33 118.376,314.819 118.865,314.819L128.199,314.819C131.768,314.819 134.784,316.252 137.247,319.119C139.711,321.986 141.777,326.105 143.444,331.476C145.111,336.847 146.375,343.354 147.235,350.999C148.095,358.644 148.525,367.277 148.525,376.898ZM142.759,377.59C142.759,370.671 142.483,364.229 141.931,358.265C141.378,352.3 140.513,347.144 139.334,342.794C138.155,338.445 136.663,335.051 134.858,332.612C133.053,330.174 130.727,328.955 127.881,328.955L122.306,328.955L122.306,428.499L127.945,428.499C130.578,428.499 132.798,427.478 134.603,425.435C136.408,423.392 137.916,420.262 139.127,416.044C140.338,411.826 141.246,406.538 141.851,400.178C142.456,393.819 142.759,386.289 142.759,377.59Z" style="fill-rule:nonzero;"/>
                <path d="M221.604,435.716C221.604,436.902 221.582,437.94 221.54,438.829C221.497,439.719 221.423,440.46 221.317,441.054C221.211,441.647 221.089,442.075 220.951,442.339C220.813,442.602 220.659,442.734 220.489,442.734L200.704,442.734C200.216,442.734 199.754,442.223 199.318,441.202C198.883,440.18 198.665,438.385 198.665,435.814L198.665,321.739C198.665,319.168 198.883,317.373 199.318,316.351C199.754,315.33 200.216,314.819 200.704,314.819L220.266,314.819C220.436,314.819 220.589,314.951 220.728,315.214C220.866,315.478 220.977,315.906 221.062,316.499C221.147,317.093 221.216,317.834 221.269,318.724C221.322,319.613 221.349,320.717 221.349,322.035C221.349,323.221 221.322,324.259 221.269,325.149C221.216,326.039 221.147,326.764 221.062,327.324C220.977,327.884 220.866,328.296 220.728,328.559C220.589,328.823 220.436,328.955 220.266,328.955L204.145,328.955L204.145,369.089L217.972,369.089C218.142,369.089 218.296,369.237 218.434,369.534C218.572,369.83 218.689,370.242 218.784,370.769C218.88,371.297 218.949,372.022 218.991,372.944C219.034,373.867 219.055,374.954 219.055,376.206C219.055,377.393 219.034,378.414 218.991,379.271C218.949,380.127 218.88,380.819 218.784,381.347C218.689,381.874 218.572,382.253 218.434,382.483C218.296,382.714 218.142,382.829 217.972,382.829L204.145,382.829L204.145,428.598L220.489,428.598C220.659,428.598 220.813,428.73 220.951,428.994C221.089,429.257 221.211,429.669 221.317,430.229C221.423,430.789 221.497,431.514 221.54,432.404C221.582,433.294 221.604,434.397 221.604,435.716Z" style="fill-rule:nonzero;"/>
                <path d="M288.884,439.768C288.799,440.493 288.682,441.086 288.533,441.548C288.384,442.009 288.177,442.372 287.912,442.635C287.646,442.899 287.307,443.08 286.892,443.179C286.478,443.278 285.963,443.327 285.347,443.327C284.88,443.327 284.471,443.311 284.121,443.278C283.77,443.245 283.467,443.162 283.213,443.031C282.958,442.899 282.74,442.751 282.56,442.586C282.379,442.421 282.225,442.207 282.098,441.943C281.97,441.68 281.869,441.367 281.795,441.004C281.721,440.642 281.652,440.197 281.588,439.67L268.111,320.849C267.942,319.399 267.851,318.229 267.841,317.34C267.83,316.45 267.92,315.774 268.111,315.313C268.303,314.852 268.611,314.555 269.035,314.424C269.46,314.292 270.034,314.226 270.756,314.226C271.35,314.226 271.823,314.275 272.173,314.374C272.524,314.473 272.795,314.654 272.986,314.918C273.177,315.181 273.32,315.527 273.416,315.956C273.512,316.384 273.602,316.928 273.687,317.587L285.506,425.237L285.538,425.237L297.039,317.784C297.103,317.06 297.177,316.466 297.262,316.005C297.347,315.544 297.496,315.181 297.708,314.918C297.921,314.654 298.218,314.473 298.601,314.374C298.983,314.275 299.493,314.226 300.13,314.226C300.788,314.226 301.309,314.308 301.691,314.473C302.073,314.638 302.333,314.951 302.471,315.412C302.609,315.873 302.663,316.549 302.631,317.439C302.599,318.328 302.498,319.498 302.328,320.948L288.884,439.768Z" style="fill-rule:nonzero;"/>
                <path d="M373.877,435.716C373.877,436.902 373.856,437.94 373.813,438.829C373.771,439.719 373.696,440.46 373.59,441.054C373.484,441.647 373.362,442.075 373.224,442.339C373.086,442.602 372.932,442.734 372.762,442.734L352.977,442.734C352.489,442.734 352.027,442.223 351.592,441.202C351.156,440.18 350.939,438.385 350.939,435.814L350.939,321.739C350.939,319.168 351.156,317.373 351.592,316.351C352.027,315.33 352.489,314.819 352.977,314.819L372.539,314.819C372.709,314.819 372.863,314.951 373.001,315.214C373.139,315.478 373.25,315.906 373.335,316.499C373.42,317.093 373.489,317.834 373.542,318.724C373.596,319.613 373.622,320.717 373.622,322.035C373.622,323.221 373.596,324.259 373.542,325.149C373.489,326.039 373.42,326.764 373.335,327.324C373.25,327.884 373.139,328.296 373.001,328.559C372.863,328.823 372.709,328.955 372.539,328.955L356.418,328.955L356.418,369.089L370.245,369.089C370.415,369.089 370.569,369.237 370.707,369.534C370.845,369.83 370.962,370.242 371.057,370.769C371.153,371.297 371.222,372.022 371.265,372.944C371.307,373.867 371.328,374.954 371.328,376.206C371.328,377.393 371.307,378.414 371.265,379.271C371.222,380.127 371.153,380.819 371.057,381.347C370.962,381.874 370.845,382.253 370.707,382.483C370.569,382.714 370.415,382.829 370.245,382.829L356.418,382.829L356.418,428.598L372.762,428.598C372.932,428.598 373.086,428.73 373.224,428.994C373.362,429.257 373.484,429.669 373.59,430.229C373.696,430.789 373.771,431.514 373.813,432.404C373.856,433.294 373.877,434.397 373.877,435.716Z" style="fill-rule:nonzero;"/>
                <path d="M445.872,435.32C445.872,436.638 445.851,437.742 445.808,438.632C445.766,439.521 445.697,440.279 445.601,440.905C445.506,441.531 445.389,441.993 445.251,442.289C445.113,442.586 444.948,442.734 444.757,442.734L426.534,442.734C426.045,442.734 425.583,442.223 425.148,441.202C424.712,440.18 424.495,438.385 424.495,435.814L424.495,317.389C424.495,316.862 424.537,316.401 424.622,316.005C424.707,315.61 424.856,315.297 425.068,315.066C425.28,314.835 425.567,314.638 425.928,314.473C426.289,314.308 426.725,314.226 427.234,314.226C427.765,314.226 428.206,314.308 428.557,314.473C428.907,314.638 429.188,314.835 429.401,315.066C429.613,315.297 429.762,315.61 429.847,316.005C429.932,316.401 429.974,316.862 429.974,317.389L429.974,428.005L444.757,428.005C444.948,428.005 445.113,428.153 445.251,428.45C445.389,428.746 445.506,429.175 445.601,429.735C445.697,430.295 445.766,431.036 445.808,431.959C445.851,432.882 445.872,434.002 445.872,435.32Z" style="fill-rule:nonzero;"/>
                <path d="M526.724,377.294C526.724,387.64 526.331,396.965 525.545,405.269C524.759,413.573 523.586,420.641 522.025,426.473C520.463,432.305 518.504,436.786 516.147,439.917C513.789,443.047 511.039,444.612 507.895,444.612C504.794,444.612 502.113,443.179 499.851,440.312C497.589,437.445 495.72,433.277 494.244,427.807C492.767,422.337 491.668,415.55 490.946,407.444C490.224,399.338 489.863,390.013 489.863,379.468C489.863,369.385 490.256,360.225 491.042,351.987C491.828,343.75 493.006,336.748 494.578,330.981C496.15,325.215 498.114,320.767 500.472,317.636C502.83,314.506 505.58,312.941 508.723,312.941C511.761,312.941 514.405,314.358 516.656,317.191C518.908,320.025 520.782,324.16 522.279,329.597C523.777,335.034 524.892,341.756 525.625,349.763C526.357,357.77 526.724,366.947 526.724,377.294ZM520.925,378.48C520.925,371.231 520.719,364.492 520.305,358.265C519.891,352.037 519.202,346.633 518.237,342.053C517.271,337.473 515.983,333.897 514.371,331.327C512.759,328.757 510.765,327.472 508.389,327.472C506.013,327.472 504.019,328.856 502.407,331.624C500.795,334.392 499.485,338.082 498.477,342.695C497.47,347.308 496.749,352.696 496.314,358.858C495.879,365.02 495.661,371.494 495.661,378.282C495.661,385.795 495.863,392.715 496.266,399.041C496.669,405.368 497.348,410.821 498.302,415.401C499.257,419.981 500.535,423.54 502.137,426.077C503.738,428.615 505.748,429.883 508.166,429.883C510.563,429.883 512.578,428.499 514.212,425.731C515.845,422.964 517.16,419.224 518.157,414.512C519.154,409.8 519.865,404.346 520.289,398.152C520.713,391.957 520.925,385.4 520.925,378.48Z" style="fill-rule:nonzero;"/>
                <path d="M602.414,352.284C602.414,358.676 602.075,364.443 601.395,369.583C600.715,374.724 599.744,379.106 598.48,382.731C597.216,386.355 595.666,389.156 593.828,391.133C591.991,393.11 589.798,394.099 587.25,394.099L582.566,394.099L582.566,440.164C582.566,440.691 582.518,441.152 582.423,441.548C582.327,441.943 582.179,442.256 581.977,442.487C581.775,442.718 581.499,442.915 581.149,443.08C580.798,443.245 580.357,443.327 579.826,443.327C579.295,443.327 578.855,443.245 578.504,443.08C578.154,442.915 577.872,442.718 577.66,442.487C577.448,442.256 577.299,441.943 577.214,441.548C577.129,441.152 577.086,440.691 577.086,440.164L577.086,322.134C577.086,319.498 577.31,317.62 577.756,316.499C578.202,315.379 578.701,314.819 579.253,314.819L588.078,314.819C588.97,314.819 589.825,314.934 590.642,315.165C591.46,315.396 592.427,315.89 593.542,316.648C594.657,317.406 595.793,318.822 596.951,320.898C598.108,322.974 599.09,325.528 599.898,328.559C600.705,331.591 601.326,335.1 601.761,339.087C602.197,343.074 602.414,347.473 602.414,352.284ZM596.648,353.668C596.648,348.462 596.335,344.112 595.708,340.619C595.082,337.127 594.306,334.524 593.382,332.81C592.458,331.097 591.503,330.009 590.515,329.548C589.527,329.087 588.566,328.856 587.632,328.856L582.566,328.856L582.566,380.16L587.504,380.16C589.161,380.16 590.536,379.501 591.63,378.183C592.724,376.865 593.643,375.037 594.386,372.697C595.129,370.358 595.692,367.557 596.074,364.295C596.457,361.032 596.648,357.49 596.648,353.668Z" style="fill-rule:nonzero;"/>
                <path d="M675.429,435.716C675.429,436.902 675.408,437.94 675.365,438.829C675.323,439.719 675.248,440.46 675.142,441.054C675.036,441.647 674.914,442.075 674.776,442.339C674.638,442.602 674.484,442.734 674.314,442.734L654.529,442.734C654.041,442.734 653.579,442.223 653.144,441.202C652.708,440.18 652.49,438.385 652.49,435.814L652.49,321.739C652.49,319.168 652.708,317.373 653.144,316.351C653.579,315.33 654.041,314.819 654.529,314.819L674.091,314.819C674.261,314.819 674.415,314.951 674.553,315.214C674.691,315.478 674.802,315.906 674.887,316.499C674.972,317.093 675.041,317.834 675.094,318.724C675.147,319.613 675.174,320.717 675.174,322.035C675.174,323.221 675.147,324.259 675.094,325.149C675.041,326.039 674.972,326.764 674.887,327.324C674.802,327.884 674.691,328.296 674.553,328.559C674.415,328.823 674.261,328.955 674.091,328.955L657.97,328.955L657.97,369.089L671.797,369.089C671.967,369.089 672.121,369.237 672.259,369.534C672.397,369.83 672.514,370.242 672.609,370.769C672.705,371.297 672.774,372.022 672.816,372.944C672.859,373.867 672.88,374.954 672.88,376.206C672.88,377.393 672.859,378.414 672.816,379.271C672.774,380.127 672.705,380.819 672.609,381.347C672.514,381.874 672.397,382.253 672.259,382.483C672.121,382.714 671.967,382.829 671.797,382.829L657.97,382.829L657.97,428.598L674.314,428.598C674.484,428.598 674.638,428.73 674.776,428.994C674.914,429.257 675.036,429.669 675.142,430.229C675.248,430.789 675.323,431.514 675.365,432.404C675.408,433.294 675.429,434.397 675.429,435.716Z" style="fill-rule:nonzero;"/>
                <path d="M753.541,440.164C753.541,440.691 753.509,441.152 753.445,441.548C753.382,441.943 753.243,442.273 753.031,442.536C752.819,442.8 752.521,442.998 752.139,443.129C751.757,443.261 751.247,443.327 750.61,443.327C750.058,443.327 749.606,443.261 749.256,443.129C748.905,442.998 748.624,442.783 748.411,442.487C748.199,442.19 748.035,441.778 747.918,441.251C747.801,440.724 747.7,440.065 747.615,439.274L743.824,409.124C743.378,405.697 742.916,402.551 742.438,399.684C741.96,396.817 741.392,394.346 740.733,392.27C740.075,390.194 739.3,388.579 738.408,387.426C737.516,386.273 736.443,385.696 735.19,385.696L731.526,385.696L731.526,440.164C731.526,440.691 731.478,441.152 731.383,441.548C731.287,441.943 731.139,442.256 730.937,442.487C730.735,442.718 730.459,442.915 730.108,443.08C729.758,443.245 729.317,443.327 728.786,443.327C728.255,443.327 727.815,443.245 727.464,443.08C727.114,442.915 726.832,442.718 726.62,442.487C726.408,442.256 726.259,441.943 726.174,441.548C726.089,441.152 726.046,440.691 726.046,440.164L726.046,321.739C726.046,319.168 726.264,317.373 726.7,316.351C727.135,315.33 727.597,314.819 728.085,314.819L736.847,314.819C737.887,314.819 738.753,314.901 739.443,315.066C740.133,315.231 740.755,315.412 741.307,315.61C742.9,316.466 744.307,317.817 745.528,319.663C746.75,321.508 747.774,323.847 748.603,326.681C749.431,329.515 750.052,332.761 750.466,336.418C750.881,340.076 751.088,344.112 751.088,348.528C751.088,352.811 750.902,356.65 750.53,360.044C750.158,363.438 749.622,366.436 748.921,369.04C748.22,371.643 747.381,373.9 746.404,375.811C745.427,377.722 744.334,379.337 743.123,380.655C743.803,381.577 744.419,382.747 744.971,384.164C745.523,385.581 746.038,387.278 746.516,389.255C746.994,391.232 747.445,393.505 747.87,396.076C748.295,398.646 748.719,401.545 749.144,404.775L752.84,432.948C753.137,435.32 753.328,436.984 753.413,437.94C753.498,438.895 753.541,439.637 753.541,440.164ZM745.289,350.307C745.289,345.298 744.928,341.064 744.206,337.604C743.484,334.145 742.273,331.657 740.574,330.141C740.043,329.68 739.443,329.35 738.774,329.153C738.105,328.955 737.229,328.856 736.146,328.856L731.526,328.856L731.526,371.956L736.879,371.956C738.323,371.956 739.571,371.412 740.622,370.325C741.673,369.237 742.549,367.721 743.25,365.777C743.951,363.833 744.466,361.543 744.796,358.907C745.125,356.271 745.289,353.404 745.289,350.307Z" style="fill-rule:nonzero;"/>
            </g>
        </g>
    </g>
</svg>
